<?xml version="1.0" standalone="no"?>
<!DOCTYPE svg PUBLIC "-//W3C//DTD SVG 20010904//EN"
 "http://www.w3.org/TR/2001/REC-SVG-20010904/DTD/svg10.dtd">
<svg version="1.0" xmlns="http://www.w3.org/2000/svg"
 width="300.000000pt" height="160.000000pt" viewBox="0 0 300.000000 160.000000"
 preserveAspectRatio="xMidYMid meet">
<metadata>
Created by potrace 1.10, written by Peter Selinger 2001-2011
</metadata>
<g transform="translate(0.000000,160.000000) scale(0.100000,-0.100000)"
fill="#000000" stroke="none">
<path d="M63 1543 c-7 -3 -13 -13 -13 -23 0 -19 17 -30 38 -23 6 3 12 13 12
23 0 19 -17 30 -37 23z"/>
<path d="M239 1528 c0 -13 -3 -17 -6 -10 -7 17 -43 15 -43 -3 0 -10 10 -15 34
-15 30 0 33 2 28 25 -5 31 -12 32 -13 3z"/>
<path d="M120 1520 c0 -16 7 -20 30 -20 22 0 30 5 30 18 0 13 -2 14 -9 3 -7
-11 -9 -11 -14 0 -4 10 -6 10 -6 2 -1 -7 -6 -13 -12 -13 -6 0 -9 7 -5 15 3 8
1 15 -4 15 -6 0 -10 -9 -10 -20z"/>
<path d="M613 1468 c1 -20 27 -25 27 -5 0 8 4 7 10 -3 9 -13 10 -13 10 0 0 13
1 13 10 0 8 -13 10 -13 10 1 0 12 -11 18 -34 21 -28 3 -34 1 -33 -14z"/>
<path d="M694 1476 c-4 -10 -2 -22 4 -28 8 -8 13 -7 18 6 4 10 2 22 -4 28 -8
8 -13 7 -18 -6z"/>
<path d="M786 1483 c-16 -17 -3 -31 29 -31 24 0 35 5 35 15 0 8 -7 13 -17 11
-10 -1 -23 1 -29 4 -6 4 -14 5 -18 1z"/>
<path d="M2505 1432 c44 -12 73 -30 85 -52 10 -19 22 -20 210 -20 127 0 200 4
200 10 0 6 -71 10 -192 10 l-192 0 -27 26 c-18 17 -41 27 -70 30 -36 3 -39 2
-14 -4z"/>
<path d="M2424 1405 c-28 -28 -44 -31 -62 -13 -9 9 -12 7 -12 -10 0 -35 42
-28 83 13 19 19 31 35 26 35 -6 0 -21 -11 -35 -25z"/>
<path d="M604 1399 c-2 -4 0 -10 6 -14 5 -3 10 -1 10 5 0 6 5 8 11 5 5 -4 37
-9 70 -12 47 -3 59 -1 59 10 0 11 -16 14 -76 14 -41 -1 -77 -4 -80 -8z"/>
<path d="M780 1402 c-5 -2 -10 -7 -10 -11 0 -12 63 -7 67 5 4 11 -31 14 -57 6z"/>
<path d="M850 1396 c0 -6 22 -11 50 -12 28 0 50 3 50 8 0 5 6 6 13 1 18 -12
77 -11 77 2 0 5 -23 11 -50 12 -28 1 -50 -3 -50 -8 0 -6 -6 -7 -12 -2 -20 12
-78 11 -78 -1z"/>
<path d="M1050 1400 c0 -5 5 -12 10 -15 6 -3 10 0 10 7 0 9 3 9 10 -2 9 -13
11 -13 20 0 6 10 10 11 10 3 0 -14 32 -13 40 1 3 5 -19 11 -47 12 -29 2 -53
-1 -53 -6z"/>
<path d="M1163 1396 c0 -8 39 -11 128 -11 91 0 125 3 118 11 -13 15 -246 16
-246 0z"/>
<path d="M2510 1339 c0 -26 -3 -29 -20 -24 -15 5 -18 3 -14 -9 8 -21 40 -21
48 0 9 25 7 64 -4 64 -5 0 -10 -14 -10 -31z"/>
<path d="M57 1344 c-4 -4 -7 -27 -7 -51 l0 -43 248 0 c137 0 251 2 253 4 2 3
3 25 1 50 l-4 45 -242 1 c-133 0 -245 -3 -249 -6z m63 -39 c15 -18 5 -35 -21
-35 -12 0 -19 7 -19 18 0 33 20 42 40 17z m394 -1 c3 -9 4 -20 1 -24 -6 -10
-229 -11 -242 -1 -4 3 -9 14 -9 24 -2 15 10 17 121 17 103 0 124 -3 129 -16z
m-266 -13 c3 -9 -10 -11 -47 -10 -34 2 -51 7 -51 16 0 17 92 12 98 -6z"/>
<path d="M790 1233 c0 -9 15 -13 46 -13 58 0 55 21 -4 24 -29 2 -42 -2 -42
-11z"/>
<path d="M895 1233 c-3 -10 18 -13 87 -13 66 0 89 3 81 11 -16 16 -162 17
-168 2z"/>
<path d="M990 1183 c-63 -23 -151 -113 -173 -177 -56 -164 23 -337 182 -397
153 -58 333 24 391 177 68 181 -52 391 -236 412 l-44 5 0 -62 c0 -59 1 -61 25
-61 51 0 123 -56 144 -113 24 -63 8 -148 -38 -201 -70 -80 -218 -71 -285 17
-24 31 -48 108 -41 131 2 6 6 23 9 38 13 57 96 128 151 128 24 0 25 2 25 60
l0 60 -32 -1 c-18 0 -53 -8 -78 -16z m90 -40 c0 -17 -40 -43 -65 -43 -25 0
-93 -72 -113 -118 -16 -37 -20 -64 -17 -106 4 -61 14 -82 66 -134 43 -44 89
-62 155 -62 160 0 261 154 202 305 -13 32 -94 115 -113 115 -27 0 -74 31 -68
45 19 51 173 -34 219 -121 32 -59 34 -175 5 -238 -39 -86 -98 -134 -191 -155
-46 -10 -64 -10 -111 2 -78 21 -108 39 -149 88 -114 136 -77 327 80 417 45 27
100 29 100 5z"/>
<path d="M83 1179 c-15 -15 -5 -39 17 -39 22 0 32 24 17 39 -6 6 -14 11 -17
11 -3 0 -11 -5 -17 -11z"/>
<path d="M150 1166 c0 -17 38 -28 46 -14 8 12 2 18 -25 23 -13 2 -21 -1 -21
-9z"/>
<path d="M210 1163 c0 -9 15 -13 50 -13 28 0 50 5 50 10 0 6 -6 10 -12 11 -7
0 -30 1 -50 3 -27 2 -38 -1 -38 -11z"/>
<path d="M2420 1132 c0 -7 -4 -10 -10 -7 -5 3 -10 1 -10 -4 0 -15 23 -14 39 2
8 7 11 7 8 1 -4 -7 3 -11 18 -11 38 0 30 24 -10 29 -25 3 -35 0 -35 -10z"/>
<path d="M2510 1130 c0 -21 21 -23 49 -6 9 6 12 5 8 -1 -4 -6 6 -10 23 -11 17
0 30 5 30 11 0 7 4 6 10 -3 8 -13 10 -12 10 3 0 12 -9 17 -32 18 -18 1 -40 2
-48 3 -8 0 -18 -3 -22 -9 -5 -6 -8 -5 -8 3 0 6 -4 12 -10 12 -5 0 -10 -9 -10
-20z"/>
<path d="M2478 1082 c-53 -2 -78 -7 -78 -15 0 -9 24 -11 83 -10 45 1 124 3
175 3 50 1 92 5 92 9 0 5 -41 9 -91 10 -50 1 -94 2 -98 4 -3 1 -41 1 -83 -1z"/>
<path d="M77 1053 c-12 -11 -7 -41 7 -46 8 -3 21 4 30 18 14 21 14 24 0 29
-20 8 -29 8 -37 -1z"/>
<path d="M150 1041 c0 -13 41 -31 53 -24 4 2 36 4 72 4 36 0 65 4 65 10 0 5
-36 9 -79 9 -44 0 -86 3 -95 6 -9 3 -16 1 -16 -5z"/>
<path d="M350 1029 c0 -7 18 -10 50 -7 28 1 50 -1 50 -5 0 -5 5 -5 10 -2 25
15 5 25 -50 25 -37 0 -60 -4 -60 -11z"/>
<path d="M76 904 c-3 -7 2 -18 10 -25 12 -10 18 -9 32 6 9 10 11 15 5 11 -7
-4 -13 -3 -13 3 0 5 6 11 13 14 6 2 0 4 -15 4 -15 0 -29 -5 -32 -13z"/>
<path d="M157 894 c4 -11 22 -14 64 -13 33 1 59 6 59 10 0 10 2 10 -72 14 -45
2 -55 0 -51 -11z"/>
<path d="M290 895 c0 -6 21 -11 50 -12 35 -2 50 2 50 11 0 9 -16 13 -50 13
-30 0 -50 -5 -50 -12z"/>
<path d="M2400 896 c0 -16 48 -28 57 -14 3 6 -1 14 -8 19 -21 13 -49 11 -49
-5z"/>
<path d="M2470 896 c0 -11 14 -15 55 -15 30 0 55 4 55 9 0 13 -31 17 -62 9
-16 -4 -28 -4 -28 2 0 5 -4 9 -10 9 -5 0 -10 -6 -10 -14z"/>
<path d="M2906 895 c-2 -6 9 -12 25 -13 18 -1 29 3 29 10 0 16 -48 17 -54 3z"/>
<path d="M2417 793 c-4 -3 -7 -88 -7 -189 0 -157 2 -183 16 -188 9 -3 142 -6
296 -6 219 0 279 3 275 13 -3 8 -21 11 -51 10 -29 -2 -45 1 -41 7 3 6 -1 10
-9 10 -9 0 -16 -4 -16 -10 0 -5 -12 -10 -26 -10 -21 0 -24 3 -19 21 6 17 4 20
-6 13 -24 -15 -99 -13 -99 2 0 10 13 14 41 14 32 0 40 3 36 14 -4 9 1 17 11
19 16 4 16 5 0 6 -9 0 -20 -3 -23 -9 -3 -5 -12 -10 -18 -10 -7 0 -6 4 3 10 12
8 10 10 -8 10 -13 0 -20 -4 -17 -10 3 -6 -5 -14 -19 -20 -15 -5 -25 -15 -24
-22 2 -8 -11 -12 -37 -12 -26 0 -39 4 -38 12 2 7 -2 12 -7 12 -5 0 -10 -6 -10
-13 0 -7 -15 -12 -40 -13 -27 -1 -40 3 -40 12 0 8 7 11 18 8 14 -5 14 -3 -2
10 -11 9 -14 16 -8 16 7 0 12 4 12 9 0 5 -13 7 -30 6 -20 -2 -30 2 -30 11 0 9
12 15 33 16 17 1 3 4 -33 7 -63 6 -65 7 -68 35 -2 15 -1 39 2 52 6 22 11 24
76 24 66 0 71 2 80 24 8 22 14 24 57 21 32 -3 43 -1 32 5 -9 5 -66 10 -127 11
-86 1 -112 4 -112 15 0 9 13 12 45 10 24 -1 48 -5 51 -9 4 -4 12 -7 18 -7 6 0
5 4 -2 9 -8 5 16 7 59 5 44 -2 76 -8 81 -16 7 -10 9 -10 5 2 -2 8 -14 21 -28
27 -21 11 -14 13 56 13 44 0 97 3 118 6 l37 7 0 -47 c0 -25 3 -46 8 -46 4 0 7
17 7 37 0 34 3 38 28 41 25 3 28 1 22 -18 -4 -14 -1 -28 10 -40 17 -18 45 -17
45 2 0 5 -4 7 -9 4 -14 -9 -41 4 -41 19 0 15 27 28 41 19 5 -3 9 6 9 20 l0 26
-288 0 c-159 0 -292 -3 -295 -7z m63 -105 c0 -8 3 -9 8 -3 4 6 26 11 50 13 32
2 42 -1 42 -13 0 -12 -14 -15 -70 -15 -58 0 -68 3 -64 15 7 18 34 20 34 3z
m10 -164 c0 -6 -10 -10 -22 -9 -30 3 -30 3 -23 14 8 13 45 9 45 -5z m37 -58
c-3 -10 -63 -17 -80 -8 -17 8 4 17 42 18 26 1 40 -3 38 -10z"/>
<path d="M88 783 c-9 -17 -2 -38 12 -38 18 0 20 37 3 42 -6 2 -13 0 -15 -4z"/>
<path d="M180 763 c0 -15 2 -16 10 -3 6 10 10 11 10 3 0 -10 30 -13 115 -12
64 0 115 4 115 10 0 10 -14 11 -103 10 -32 0 -63 -3 -69 -7 -7 -4 -8 -3 -4 4
4 7 2 12 -3 12 -6 0 -11 -4 -11 -10 0 -6 -9 -6 -26 0 -33 13 -34 13 -34 -7z"/>
<path d="M80 640 c0 -15 7 -20 25 -20 20 0 25 5 24 23 -1 16 -2 18 -6 5 -2
-10 -12 -18 -21 -17 -11 0 -12 2 -4 6 17 7 15 23 -3 23 -8 0 -15 -9 -15 -20z"/>
<path d="M160 636 c0 -9 20 -12 62 -11 84 2 87 21 3 22 -44 0 -65 -3 -65 -11z"/>
<path d="M303 637 c5 -17 77 -17 77 -1 0 10 -12 13 -40 12 -23 -1 -39 -6 -37
-11z"/>
<path d="M796 516 c7 -17 64 -23 64 -6 0 6 -9 10 -19 10 -11 0 -27 3 -35 6
-12 5 -15 2 -10 -10z"/>
<path d="M870 515 c0 -11 12 -14 50 -12 28 0 50 5 50 10 0 5 -20 7 -44 6 -24
-2 -42 -1 -39 4 2 4 -1 7 -6 7 -6 0 -11 -7 -11 -15z"/>
<path d="M980 516 c0 -13 11 -16 55 -16 30 0 55 5 55 10 0 6 -18 10 -39 10
-22 0 -46 3 -55 6 -11 4 -16 1 -16 -10z"/>
<path d="M803 457 c-14 -18 -10 -42 7 -42 9 0 15 10 16 23 2 27 -10 37 -23 19z"/>
<path d="M840 435 c0 -31 20 -33 21 -2 1 21 1 21 9 -3 l8 -25 1 28 c1 21 -4
27 -19 27 -15 0 -20 -7 -20 -25z"/>
<path d="M890 441 c0 -25 19 -38 31 -20 12 19 6 33 -14 37 -11 2 -17 -3 -17
-17z"/>
<path d="M946 451 c-9 -14 5 -42 18 -38 18 6 20 47 2 47 -8 0 -17 -4 -20 -9z"/>
<path d="M990 435 c0 -26 24 -35 32 -12 7 18 -2 37 -18 37 -8 0 -14 -10 -14
-25z"/>
<path d="M1023 343 c229 -2 605 -2 835 0 229 1 41 2 -418 2 -459 0 -647 -1
-417 -2z"/>
<path d="M798 249 c-15 -4 -30 -4 -33 -1 -3 4 -10 0 -15 -8 -6 -8 -10 -10 -10
-5 0 6 -26 12 -60 13 -47 1 -60 -2 -60 -13 0 -8 7 -15 15 -15 8 0 15 6 15 13
0 9 2 9 8 0 4 -7 34 -11 74 -11 37 0 65 5 62 9 -3 5 -1 9 5 9 5 0 11 -6 14
-12 3 -9 8 -10 15 -3 19 17 -1 32 -30 24z"/>
<path d="M843 234 c0 -8 11 -14 24 -14 13 0 23 6 23 14 0 7 -10 14 -23 14 -13
0 -24 -7 -24 -14z"/>
<path d="M2140 238 c0 -9 12 -14 35 -15 19 0 35 3 35 8 0 5 -6 9 -12 9 -7 0
-23 3 -35 6 -16 4 -23 2 -23 -8z"/>
<path d="M2406 237 c2 -7 10 -14 17 -14 7 0 19 -2 27 -4 8 -2 15 2 15 10 0 9
-13 16 -32 18 -25 3 -31 1 -27 -10z"/>
<path d="M2485 239 c-10 -15 -4 -18 50 -19 113 -2 135 0 135 13 0 15 -146 18
-169 3 -10 -6 -12 -6 -7 2 4 7 5 12 2 12 -3 0 -8 -5 -11 -11z"/>
<path d="M156 143 c-12 -12 -5 -19 19 -19 29 0 34 21 6 23 -10 1 -22 -1 -25
-4z"/>
<path d="M1260 104 c0 -6 34 -11 91 -12 50 -2 95 -3 101 -5 6 -1 13 4 15 11 3
9 -11 12 -54 13 -32 0 -79 1 -106 2 -28 1 -47 -2 -47 -9z"/>
<path d="M2560 109 c0 -5 18 -9 40 -9 22 0 40 4 40 8 0 4 -18 8 -40 9 -22 1
-40 -2 -40 -8z"/>
<path d="M173 102 c-13 -2 -23 -7 -23 -10 0 -4 79 -8 175 -9 96 0 175 3 175 8
0 5 -28 9 -62 10 -195 4 -245 4 -265 1z"/>
<path d="M2464 95 c-3 -8 -3 -19 1 -25 9 -14 35 6 35 26 0 19 -29 18 -36 -1z"/>
<path d="M1288 63 c39 -2 105 -2 145 0 39 1 7 3 -73 3 -80 0 -112 -2 -72 -3z"/>
<path d="M2560 60 c0 -6 35 -10 85 -10 50 0 85 4 85 10 0 6 -35 10 -85 10 -50
0 -85 -4 -85 -10z"/>
<path d="M2818 63 c34 -2 90 -2 125 0 34 2 6 3 -63 3 -69 0 -97 -1 -62 -3z"/>
</g>
</svg>
